<svg width="337" height="291" viewBox="0 0 371 370" fill="none" xmlns="http://www.w3.org/2000/svg">
<g clip-path="url(#clip0_318_162)">
<path d="M185.18 276.124C134.754 276.124 93.728 235.113 93.728 184.704C93.728 134.295 134.754 93.283 185.18 93.283C235.606 93.283 276.632 134.295 276.632 184.704C276.632 235.113 235.606 276.124 185.18 276.124ZM185.18 147.641C164.736 147.641 148.099 164.267 148.099 184.71C148.099 205.152 164.73 221.778 185.18 221.778C205.629 221.778 222.261 205.152 222.261 184.71C222.261 164.267 205.629 147.641 185.18 147.641Z" fill="#82387A"/>
<path d="M193.752 148.239C140.578 144.694 104.342 90.7404 126.109 41.1952C141.659 6.27676 183.518 -10.2041 217.669 7.6718C234.99 16.6883 246.855 33.7066 249.289 52.4642C249.495 54.0284 247.259 54.5356 246.74 53.05C238.034 28.1445 211.411 12.1227 184.866 20.7828C160.665 28.5431 147.718 56.9936 161.13 78.8916C167.358 88.8682 177.961 94.9074 189.415 94.4182C190.883 94.3457 192.333 94.1404 193.752 93.8928V148.245V148.239Z" fill="#82387A"/>
<path d="M148.401 184.704C144.855 237.86 90.8825 274.083 41.3204 252.324C6.39015 236.779 -10.0963 194.934 7.78567 160.794C16.63 143.812 33.1829 132.078 51.518 129.337C53.2095 129.083 53.8257 131.486 52.2248 132.078C27.8606 141.119 12.3528 167.389 20.9011 193.587C28.6641 217.78 57.1242 230.722 79.0297 217.315C89.0098 211.089 95.051 200.49 94.5616 189.04C94.5193 188.134 94.4227 187.228 94.2958 186.334C94.1689 185.44 94.8335 184.697 95.7034 184.697H148.407L148.401 184.704Z" fill="#82387A"/>
<path d="M185.18 221.772C238.355 225.317 274.59 279.271 252.823 328.816C237.273 363.734 195.414 380.215 161.263 362.339C144.214 353.468 132.452 336.83 129.764 318.423C129.522 316.762 131.89 316.152 132.464 317.728C141.441 342.193 167.793 357.804 194.066 349.228C218.268 341.468 231.214 313.018 217.802 291.12C211.574 281.143 200.972 275.104 189.517 275.593C188.049 275.665 186.599 275.871 185.18 276.118V221.766V221.772Z" fill="#82387A"/>
<path d="M222.593 184.704C226.139 131.547 280.111 95.3241 329.673 117.083C364.604 132.628 381.09 174.473 363.208 208.613C354.243 225.824 337.37 237.643 318.739 240.173C317.12 240.391 316.564 238.114 318.105 237.564C342.855 228.759 358.726 202.247 350.093 175.814C342.33 151.621 313.87 138.679 291.964 152.086C281.984 158.312 275.943 168.911 276.432 180.361C276.505 181.829 276.71 183.278 276.958 184.698H222.587L222.593 184.704Z" fill="#82387A"/>
</g>
<path d="M195.517 74.8236C204.645 74.8236 212.045 67.421 212.045 58.2894C212.045 49.1578 204.645 41.7551 195.517 41.7551C186.389 41.7551 178.989 49.1578 178.989 58.2894C178.989 67.421 186.389 74.8236 195.517 74.8236Z" fill="#82387A"/>
<path d="M232.229 86.9518C237.094 86.9518 241.038 83.0077 241.038 78.1423C241.038 73.2769 237.094 69.3328 232.229 69.3328C227.363 69.3328 223.419 73.2769 223.419 78.1423C223.419 83.0077 227.363 86.9518 232.229 86.9518Z" fill="#82387A"/>
<path d="M55.3304 200.455C64.4587 200.455 71.8586 193.052 71.8586 183.921C71.8586 174.789 64.4587 167.386 55.3304 167.386C46.2022 167.386 38.8023 174.789 38.8023 183.921C38.8023 193.052 46.2022 200.455 55.3304 200.455Z" fill="#82387A"/>
<path d="M70.5932 155.896C75.4585 155.896 79.4027 151.952 79.4027 147.086C79.4027 142.221 75.4585 138.277 70.5932 138.277C65.7278 138.277 61.7836 142.221 61.7836 147.086C61.7836 151.952 65.7278 155.896 70.5932 155.896Z" fill="#82387A"/>
<path d="M295.811 235.565C300.676 235.565 304.62 231.621 304.62 226.755C304.62 221.89 300.676 217.946 295.811 217.946C290.945 217.946 287.001 221.89 287.001 226.755C287.001 231.621 290.945 235.565 295.811 235.565Z" fill="#82387A"/>
<path d="M312.722 205.817C321.85 205.817 329.25 198.415 329.25 189.283C329.25 180.152 321.85 172.749 312.722 172.749C303.593 172.749 296.194 180.152 296.194 189.283C296.194 198.415 303.593 205.817 312.722 205.817Z" fill="#82387A"/>
<path d="M185.131 200.311C194.259 200.311 201.659 192.908 201.659 183.776C201.659 174.645 194.259 167.242 185.131 167.242C176.003 167.242 168.603 174.645 168.603 183.776C168.603 192.908 176.003 200.311 185.131 200.311Z" fill="#82387A"/>
<path d="M145.666 303.743C150.531 303.743 154.475 299.799 154.475 294.933C154.475 290.068 150.531 286.124 145.666 286.124C140.8 286.124 136.856 290.068 136.856 294.933C136.856 299.799 140.8 303.743 145.666 303.743Z" fill="#82387A"/>
<path d="M181.728 328.385C190.856 328.385 198.256 320.982 198.256 311.85C198.256 302.719 190.856 295.316 181.728 295.316C172.6 295.316 165.2 302.719 165.2 311.85C165.2 320.982 172.6 328.385 181.728 328.385Z" fill="#82387A"/>
<defs>
<clipPath id="clip0_318_162">
<rect width="370" height="369.234" fill="white" transform="translate(0.5 0.388672)"/>
</clipPath>
</defs>
</svg>
