<svg width="337" height="291" viewBox="0 0 337 291" fill="none" xmlns="http://www.w3.org/2000/svg">
<g clip-path="url(#clip0_312_170)">
<path d="M282.822 222.7C306.131 222.7 325.027 203.628 325.027 180.101C325.027 156.574 306.131 137.502 282.822 137.502C259.513 137.502 240.617 156.574 240.617 180.101C240.617 203.628 259.513 222.7 282.822 222.7Z" fill="#82387A"/>
<path d="M203.486 290.694C225.101 290.694 242.623 273.172 242.623 251.557C242.623 229.942 225.101 212.42 203.486 212.42C181.871 212.42 164.348 229.942 164.348 251.557C164.348 273.172 181.871 290.694 203.486 290.694Z" fill="#82387A"/>
<path d="M105.633 281.907C125.98 281.907 142.475 265.413 142.475 245.065C142.475 224.718 125.98 208.223 105.633 208.223C85.2856 208.223 68.7908 224.718 68.7908 245.065C68.7908 265.413 85.2856 281.907 105.633 281.907Z" fill="#82387A"/>
<path d="M40.3086 218.916C59.1005 218.916 74.3343 203.682 74.3343 184.89C74.3343 166.098 59.1005 150.865 40.3086 150.865C21.5167 150.865 6.28284 166.098 6.28284 184.89C6.28284 203.682 21.5167 218.916 40.3086 218.916Z" fill="#82387A"/>
<path d="M32.2915 141.552C49.8494 141.552 64.0829 127.319 64.0829 109.761C64.0829 92.2027 49.8494 77.9692 32.2915 77.9692C14.7335 77.9692 0.5 92.2027 0.5 109.761C0.5 127.319 14.7335 141.552 32.2915 141.552Z" fill="#82387A"/>
<path d="M68.7908 73.7213C83.9742 73.7213 96.2827 61.4128 96.2827 46.2294C96.2827 31.0461 83.9742 18.7375 68.7908 18.7375C53.6075 18.7375 41.299 31.0461 41.299 46.2294C41.299 61.4128 53.6075 73.7213 68.7908 73.7213Z" fill="#82387A"/>
<path d="M134.162 53.0214C148.612 53.0214 160.326 41.3075 160.326 26.8578C160.326 12.4081 148.612 0.694336 134.162 0.694336C119.712 0.694336 107.999 12.4081 107.999 26.8578C107.999 41.3075 119.712 53.0214 134.162 53.0214Z" fill="#82387A"/>
<path d="M193.192 75.1528C206.314 75.1528 216.952 64.515 216.952 51.3926C216.952 38.2702 206.314 27.6323 193.192 27.6323C180.07 27.6323 169.432 38.2702 169.432 51.3926C169.432 64.515 180.07 75.1528 193.192 75.1528Z" fill="#82387A"/>
<path d="M212.695 128.029C224.913 128.029 234.817 118.125 234.817 105.907C234.817 93.6893 224.913 83.7849 212.695 83.7849C200.477 83.7849 190.573 93.6893 190.573 105.907C190.573 118.125 200.477 128.029 212.695 128.029Z" fill="#82387A"/>
<path d="M193.882 178.878C205.516 178.878 214.948 169.446 214.948 157.812C214.948 146.177 205.516 136.746 193.882 136.746C182.248 136.746 172.816 146.177 172.816 157.812C172.816 169.446 182.248 178.878 193.882 178.878Z" fill="#82387A"/>
<path d="M146.582 193.349C156.347 193.349 164.264 185.432 164.264 175.667C164.264 165.901 156.347 157.985 146.582 157.985C136.817 157.985 128.9 165.901 128.9 175.667C128.9 185.432 136.817 193.349 146.582 193.349Z" fill="#82387A"/>
<path d="M107.041 172.156C115.679 172.156 122.681 165.154 122.681 156.516C122.681 147.878 115.679 140.876 107.041 140.876C98.4033 140.876 91.4011 147.878 91.4011 156.516C91.4011 165.154 98.4033 172.156 107.041 172.156Z" fill="#82387A"/>
<path d="M94.2738 135.107C101.854 135.107 107.999 128.963 107.999 121.383C107.999 113.803 101.854 107.658 94.2738 107.658C86.6938 107.658 80.549 113.803 80.549 121.383C80.549 128.963 86.6938 135.107 94.2738 135.107Z" fill="#82387A"/>
<path d="M110.008 104.903C117.009 104.903 122.686 99.2264 122.686 92.2245C122.686 85.2226 117.009 79.5464 110.008 79.5464C103.006 79.5464 97.3295 85.2226 97.3295 92.2245C97.3295 99.2264 103.006 104.903 110.008 104.903Z" fill="#82387A"/>
<path d="M138.72 92.3418C144.96 92.3418 150.018 87.2835 150.018 81.0437C150.018 74.8039 144.96 69.7456 138.72 69.7456C132.48 69.7456 127.422 74.8039 127.422 81.0437C127.422 87.2835 132.48 92.3418 138.72 92.3418Z" fill="#82387A"/>
<path d="M163.1 104.128C168.466 104.128 172.816 99.7777 172.816 94.4116C172.816 89.0454 168.466 84.6953 163.1 84.6953C157.734 84.6953 153.383 89.0454 153.383 94.4116C153.383 99.7777 157.734 104.128 163.1 104.128Z" fill="#82387A"/>
<path d="M170.042 126.874C174.768 126.874 178.599 123.043 178.599 118.317C178.599 113.592 174.768 109.76 170.042 109.76C165.316 109.76 161.485 113.592 161.485 118.317C161.485 123.043 165.316 126.874 170.042 126.874Z" fill="#82387A"/>
<path d="M158.57 143.857C162.498 143.857 165.681 140.673 165.681 136.745C165.681 132.818 162.498 129.634 158.57 129.634C154.643 129.634 151.459 132.818 151.459 136.745C151.459 140.673 154.643 143.857 158.57 143.857Z" fill="#82387A"/>
<path d="M139.466 147.053C142.878 147.053 145.643 144.288 145.643 140.876C145.643 137.465 142.878 134.699 139.466 134.699C136.055 134.699 133.289 137.465 133.289 140.876C133.289 144.288 136.055 147.053 139.466 147.053Z" fill="#82387A"/>
<path d="M125.892 137.703C128.831 137.703 131.214 135.32 131.214 132.38C131.214 129.44 128.831 127.057 125.892 127.057C122.952 127.057 120.569 129.44 120.569 132.38C120.569 135.32 122.952 137.703 125.892 137.703Z" fill="#82387A"/>
<path d="M122.681 123.438C124.991 123.438 126.863 121.566 126.863 119.256C126.863 116.946 124.991 115.074 122.681 115.074C120.371 115.074 118.499 116.946 118.499 119.256C118.499 121.566 120.371 123.438 122.681 123.438Z" fill="#82387A"/>
<path d="M131.21 112.774C133.25 112.774 134.904 111.12 134.904 109.08C134.904 107.04 133.25 105.386 131.21 105.386C129.17 105.386 127.516 107.04 127.516 109.08C127.516 111.12 129.17 112.774 131.21 112.774Z" fill="#82387A"/>
<path d="M143.347 110.629C145.182 110.629 146.669 109.144 146.669 107.312C146.669 105.48 145.182 103.995 143.347 103.995C141.513 103.995 140.025 105.48 140.025 107.312C140.025 109.144 141.513 110.629 143.347 110.629Z" fill="#82387A"/>
<path d="M150.466 118.211C152.039 118.211 153.314 116.938 153.314 115.368C153.314 113.797 152.039 112.524 150.466 112.524C148.894 112.524 147.619 113.797 147.619 115.368C147.619 116.938 148.894 118.211 150.466 118.211Z" fill="#82387A"/>
<path d="M148.093 126.74C149.404 126.74 150.466 125.679 150.466 124.371C150.466 123.062 149.404 122.001 148.093 122.001C146.783 122.001 145.72 123.062 145.72 124.371C145.72 125.679 146.783 126.74 148.093 126.74Z" fill="#82387A"/>
<path d="M139.551 128.636C140.861 128.636 141.924 127.575 141.924 126.266C141.924 124.958 140.861 123.897 139.551 123.897C138.24 123.897 137.178 124.958 137.178 126.266C137.178 127.575 138.24 128.636 139.551 128.636Z" fill="#82387A"/>
<path d="M134.33 122.949C135.379 122.949 136.229 122.101 136.229 121.054C136.229 120.007 135.379 119.158 134.33 119.158C133.282 119.158 132.432 120.007 132.432 121.054C132.432 122.101 133.282 122.949 134.33 122.949Z" fill="#82387A"/>
<path d="M137.653 118.211C138.439 118.211 139.076 117.574 139.076 116.789C139.076 116.004 138.439 115.367 137.653 115.367C136.866 115.367 136.229 116.004 136.229 116.789C136.229 117.574 136.866 118.211 137.653 118.211Z" fill="#82387A"/>
<path d="M141.924 118.211C142.448 118.211 142.873 117.786 142.873 117.263C142.873 116.739 142.448 116.315 141.924 116.315C141.4 116.315 140.975 116.739 140.975 117.263C140.975 117.786 141.4 118.211 141.924 118.211Z" fill="#82387A"/>
<path d="M282.473 195.799C291.106 195.799 298.105 188.801 298.105 180.168C298.105 171.535 291.106 164.536 282.473 164.536C273.84 164.536 266.841 171.535 266.841 180.168C266.841 188.801 273.84 195.799 282.473 195.799Z" fill="#F9A505"/>
</g>
<defs>
<clipPath id="clip0_312_170">
<rect width="336" height="290" fill="white" transform="translate(0.5 0.694336)"/>
</clipPath>
</defs>
</svg>
