<svg width="337" height="291" viewBox="0 0 320 321" fill="none" xmlns="http://www.w3.org/2000/svg">
<g clip-path="url(#clip0_318_188)">
<path d="M172.474 185.069C165.575 162.374 141.637 149.585 119.012 156.507C96.3875 163.428 83.6389 187.441 90.5386 210.137C97.4384 232.832 121.377 245.621 144.001 238.699C166.626 231.778 179.374 207.765 172.474 185.069Z" fill="#773670"/>
<path d="M210.333 164.186C197.916 123.345 154.842 100.334 114.128 112.79C73.4146 125.246 50.4757 168.455 62.8927 209.296C75.314 250.138 118.384 273.148 159.098 260.692C199.811 248.232 222.75 205.027 210.333 164.186Z" stroke="#773670" stroke-width="15" stroke-miterlimit="10"/>
<path d="M234.199 172.106C234.199 156.241 221.373 143.353 205.52 143.353C189.666 143.353 176.84 156.241 176.84 172.106C176.84 187.972 189.666 200.86 205.52 200.86C221.373 200.86 234.199 187.972 234.199 172.106Z" fill="#773670" stroke="#F9A505" stroke-width="10"/>
<path d="M260.968 138.023C242.022 75.7089 176.302 40.6008 114.182 59.6065C52.063 78.6123 17.0646 144.538 36.011 206.853C54.9573 269.167 120.677 304.275 182.797 285.269C244.916 266.259 279.915 200.337 260.968 138.023Z" stroke="#773670" stroke-width="15" stroke-miterlimit="10"/>
<path d="M275.573 117.051C275.573 103 264.217 91.6082 250.209 91.6082C236.201 91.6082 224.846 103 224.846 117.051C224.846 131.103 236.201 142.495 250.209 142.495C264.217 142.495 275.573 131.103 275.573 117.051Z" fill="#773670"/>
<path d="M306.342 115.228C281.689 34.1503 196.187 -11.5257 115.363 13.2046C34.5423 37.9307 -10.9953 123.705 13.6578 204.783C38.3109 285.857 123.813 331.537 204.637 306.807C285.462 282.076 330.995 196.306 306.342 115.228Z" stroke="#773670" stroke-width="15" stroke-miterlimit="10"/>
<path d="M288.74 53.1733C288.74 42.5002 280.114 33.8478 269.475 33.8478C258.835 33.8478 250.21 42.5002 250.21 53.1733C250.21 63.8465 258.835 72.4988 269.475 72.4988C280.114 72.4988 288.74 63.8465 288.74 53.1733Z" fill="#773670"/>
</g>
<defs>
<clipPath id="clip0_318_188">
<rect width="320" height="319" fill="white" transform="translate(0.5 320.006) rotate(-90)"/>
</clipPath>
</defs>
</svg>
