<svg width="337" height="291" viewBox="0 0 339 298" fill="none" xmlns="http://www.w3.org/2000/svg">
<path d="M324.38 78.0465C340.424 110.737 343.199 149.417 332.805 184.273C311.465 255.679 242.644 301.057 168.831 297.156C106.8 294.154 50.5038 256.514 21.9274 201.592C13.4451 185.442 7.16482 167.698 3.95033 149.693C-4.50363 102.141 3.41223 77.7987 3.41223 77.7987L3.57508 77.8624C10.0607 53.8529 18.1677 37.2282 37.0228 23.4922C69.1393 0.105785 110.283 4.07787 134.93 35.2386C154.422 59.8783 155.222 82.6062 140.609 112.153C136.828 119.807 134.321 134.158 133.953 142.69C132.771 170.233 151.711 200.077 177.986 211.221C201.103 221.098 224.022 220.709 246.488 209.494C276.828 194.405 293.74 161.092 296.898 127.482C296.898 74.6684 257.868 23.4922 211.66 3.40524C211.603 3.39107 211.54 3.36983 211.483 3.35567C209.472 2.768 210.053 -0.226994 212.134 0.0137382C225.672 1.60682 239.366 5.55767 251.572 10.3582C283.193 22.6851 309.511 47.4876 324.38 78.0465Z" fill="#773670"/>
<path d="M226.235 69.7788C234.11 59.1942 232.082 44.101 221.701 36.0713C211.32 28.0417 196.517 30.1099 188.642 40.6945C180.766 51.279 182.795 66.3723 193.176 74.4019C203.557 82.4316 218.36 80.3633 226.235 69.7788Z" fill="#773670"/>
<path d="M250.763 164.368C264.281 146.55 260.797 121.144 242.979 107.626C225.161 94.1076 199.756 97.5914 186.237 115.41C172.719 133.228 176.203 158.633 194.021 172.151C211.839 185.67 237.244 182.186 250.763 164.368Z" fill="#773670"/>
<path d="M178.424 24.1083C181.808 19.6406 180.937 13.2753 176.476 9.89089C172.009 6.50647 165.644 7.37736 162.259 11.838C158.875 16.3057 159.746 22.671 164.206 26.0554C168.674 29.4398 175.039 28.5689 178.424 24.1083Z" fill="#773670"/>
<path d="M105.37 98.8061C116.252 84.4613 113.448 64.0132 99.1035 53.1306C84.7586 42.2481 64.3105 45.0519 53.428 59.3968C42.5455 73.7416 45.3493 94.1897 59.6941 105.072C74.039 115.955 94.4871 113.151 105.37 98.8061Z" fill="#F9A505"/>
<path d="M90.0337 170.674C96.5427 162.094 94.8657 149.864 86.2858 143.355C77.7059 136.846 65.4754 138.523 58.9664 147.103C52.4573 155.683 54.1343 167.913 62.7143 174.422C71.2942 180.931 83.5246 179.254 90.0337 170.674Z" fill="#F9A505"/>
</svg>
